<svg width="289" height="227" viewBox="0 0 289 227" fill="none" xmlns="http://www.w3.org/2000/svg">
<path d="M253.896 113.5C253.896 176.184 202.409 227 138.896 227C75.3837 227 23.8965 176.184 23.8965 113.5C23.8965 50.8157 75.3837 0 138.896 0C202.409 0 253.896 50.8157 253.896 113.5ZM39.4651 113.5C39.4651 167.698 83.9821 211.634 138.896 211.634C193.811 211.634 238.328 167.698 238.328 113.5C238.328 59.3019 193.811 15.3656 138.896 15.3656C83.9821 15.3656 39.4651 59.3019 39.4651 113.5Z" fill="url(#paint0_linear_126_280)"/>
<path d="M132.397 145.999C132.797 142.799 133.333 56.3385 133.5 14.1719H143.897V141.499C148.064 138.832 158.797 133.399 168.397 126.999C180.397 118.999 185.5 111.499 191.5 100.999C204.5 73.9991 192 33.4991 182.897 24.4991C182.731 22.6658 179.3 14.1991 196.5 30.9991C213.7 47.7991 210.667 92.4991 203.5 107.999C217.5 98.1658 245.498 76.8536 247.397 75.4991C249.5 73.9991 254.5 69.9991 257.5 67.9991C255.5 63.4991 252.897 53.5991 258.897 47.9991C266.397 40.9991 271.397 42.4991 274.897 41.9991C278.397 41.4991 282.397 36.4991 271.397 34.4991C262.597 32.8991 240.397 40.4991 230.397 44.4991C226.897 43.1658 220.897 39.9991 224.897 37.9991C229.897 35.4991 251.397 29.4991 257.897 27.9991C264.397 26.4991 274.397 26.4991 281.897 30.9991C287.897 34.5991 285.333 42.4991 283.5 45.4991L286.897 50.4991C287.564 51.8324 288.797 55.8991 288.397 61.4991C287.897 68.4991 275.397 76.4991 267.897 72.4991C261.897 69.2991 244.731 86.1658 236.897 94.9991C186.897 137.999 127.897 160.999 118.897 167.499C118.246 167.969 117.23 168.566 115.913 169.263L117.5 176.999L110.5 179.999C110.202 178.087 109.753 175.405 109.219 172.52C95.5446 178.814 71.818 188.277 58.3972 192.999C53.3972 194.999 40.7972 199.299 30.3972 200.499C17.3972 201.999 8.39708 201.999 3.89711 198.499C-0.602863 194.999 -0.602893 190.999 0.897107 184.999C2.09711 180.199 20.7304 159.666 29.8971 149.999L33.8971 158.999L31.3971 160.999C23.3971 169.166 11.2 184.599 12 188.999C12.9977 194.487 15.0579 194.208 23.9389 193.007L24 192.999C31.3971 191.999 63.1347 180.961 66.5 179.999C70 178.999 81.1667 174.166 88 170.999C81.6667 168.499 70.3971 162.099 60.3971 150.499C47.8971 135.999 42.897 128.499 39.397 121.999C36.597 116.799 38.897 105.832 40.397 100.999C42.897 109.666 52.497 130.799 70.897 145.999C89.297 161.199 97.8333 163.999 100.5 163.999L106.403 160.556C106.4 160.359 106.398 160.116 106.397 159.818C106.168 159.035 105.94 158.342 105.719 157.765C105.684 157.676 105.649 157.588 105.614 157.499C87.202 110.906 80.2238 125.077 67.8969 94.9991C57.8969 70.5991 69.6666 43.9991 77 34.4991L91.5 25.9991C90.1667 26.8324 85.997 32.5991 80.397 44.9991C73.397 60.4991 74.897 79.9991 78.397 89.9991C81.197 97.9991 87 105.832 89.5 108.999C93 112.999 103.297 122.199 108.897 134.999C112.335 142.858 114.606 151.245 115.616 156.318C121.912 152.979 132.056 148.73 132.397 145.999Z" fill="url(#paint1_linear_126_280)"/>
<path d="M161.014 150.859C160.214 140.059 194.007 113.5 192 101.5C197.833 97.8337 207.114 91.0594 205.514 99.8594C203.914 108.659 183.847 133.193 174.014 144.359C170.014 151.026 161.814 161.659 161.014 150.859Z" fill="url(#paint2_linear_126_280)"/>
<path d="M199.397 151.5C214.997 140.3 232.833 112.5 239 101V122.428C239.034 122.408 239.033 122.433 239 122.5V122.428C238.695 122.605 235.596 126.421 228.397 136.5C208.06 163.782 186.738 170.888 170.29 176.369L169.897 176.5C166.697 190.5 178.5 200 184 202.5L171.5 207C166.5 202.167 156.597 189.3 157.397 178.5C147.397 177.3 143.897 181.333 143.397 183.5V213.758L132.397 214.173V181C130.731 180.667 125.697 179.7 118.897 178.5C116.897 192.1 109.731 202.833 106.397 206.5C104.897 206 97.8 204.8 91 202C104 196.5 105.86 183.032 109 177C111.603 172 125.731 173.167 132.397 171.5C132.731 169.667 133.5 171.5 146 172C161.03 172.601 162 142.5 161 138.5C160.2 135.3 169.167 145.333 173.5 144.5L169.897 164C173.231 164.5 183.797 162.7 199.397 151.5Z" fill="url(#paint3_linear_126_280)"/>
<path d="M200.5 151C150.1 181.4 99.3333 166 82 154.5C80.5 154.5 84.4 157.7 80 164.5C134.4 196.9 185.667 174.667 204.5 160C203.167 158.833 200.5 156.2 200.5 151Z" fill="url(#paint4_linear_126_280)"/>
<defs>
<linearGradient id="paint0_linear_126_280" x1="138.896" y1="0" x2="134.836" y2="262.477" gradientUnits="userSpaceOnUse">
<stop offset="0.705125" stop-color="#F59321"/>
<stop offset="0.876842" stop-color="#D1672E"/>
</linearGradient>
<linearGradient id="paint1_linear_126_280" x1="144.238" y1="14.1719" x2="142.034" y2="230.75" gradientUnits="userSpaceOnUse">
<stop offset="0.705125" stop-color="#F59321"/>
<stop offset="0.876842" stop-color="#D1672E"/>
</linearGradient>
<linearGradient id="paint2_linear_126_280" x1="183.348" y1="95.5391" x2="181.892" y2="164.835" gradientUnits="userSpaceOnUse">
<stop offset="0.705125" stop-color="#F59321"/>
<stop offset="0.876842" stop-color="#D1672E"/>
</linearGradient>
<linearGradient id="paint3_linear_126_280" x1="165.013" y1="100.5" x2="163.43" y2="231.951" gradientUnits="userSpaceOnUse">
<stop offset="0.705125" stop-color="#F59321"/>
<stop offset="0.876842" stop-color="#D1672E"/>
</linearGradient>
<linearGradient id="paint4_linear_126_280" x1="142.25" y1="151" x2="142.117" y2="185.907" gradientUnits="userSpaceOnUse">
<stop offset="0.705125" stop-color="#F59321"/>
<stop offset="0.876842" stop-color="#D1672E"/>
</linearGradient>
</defs>
</svg>
